# xmcd
#
# Track frame offsets:
#	150
#	15871
#	32066
#	49960
#	67958
#	88321
#	105724
#	127782
#	151108
#	170479
#	189422
#	207735
#	224763
#	243207
#	260307
#
# Disc length: 3720 seconds
#
# Revision: 1
# Processed by: cddbd v1.5.2PL0 Copyright (c) Steve Scherf et al.
# Submitted via: audiograbber 1.83.01
#
DISCID=cb0e860f
DTITLE=Carrie Underwood - CB90330 Carrie Underwood Greatest Hits
DYEAR=1900
DGENRE=
TTITLE0=Before He Cheats
TTITLE1=Flat on the Roof
TTITLE2=Jesus, Take the Wheel!
TTITLE3=So Small
TTITLE4=I Told You So
TTITLE5=Crazy Dreams
TTITLE6=Wasted
TTITLE7=Just a Dream
TTITLE8=Last Name
TTITLE9=Don't Forget to Remember Me
TTITLE10=Some Hearts
TTITLE11=The More Boys I Meet
TTITLE12=We're Young and Beautiful
TTITLE13=All-American Girl
TTITLE14=Inside Your Heaven
EXTD=
EXTT0=
EXTT1=
EXTT2=
EXTT3=
EXTT4=
EXTT5=
EXTT6=
EXTT7=
EXTT8=
EXTT9=
EXTT10=
EXTT11=
EXTT12=
EXTT13=
EXTT14=
PLAYORDER=
